<svg xmlns="http://www.w3.org/2000/svg" width="25.87" height="25.9" viewBox="0 0 25.87 25.9">
    <style type="text/css">
        .st0{stroke:#9fce4e;fill:none;stroke-width:1;stroke-linecap:round;stroke-linejoin:round;}
    </style>
    <path class="st0" d="M9.01,25.4C13.77,25.4 15.14,22.31 15.53,20.77C15.66,20.26 16.1,19.91 16.62,19.91L16.63,19.91C17.12,19.91 17.53,19.51 17.53,19.01C17.53,18.51 17.12,18.11 16.63,18.11L9.01,18.11L1.39,18.11C0.9,18.11 0.49,18.51 0.49,19.01C0.49,19.51 0.9,19.91 1.39,19.91L1.4,19.91C1.92,19.91 2.36,20.26 2.49,20.77C2.88,22.31 4.26,25.4 9.01,25.4Z"/>
    <path class="st0" d="M13.69,18.11C16.16,14.47 11.66,12.91 11.66,12.91C11.66,12.91 11.8,14.37 9.01,14.85C6.22,15.32 2.77,15.22 3.29,18.11"/>
    <path class="st0" d="M25.12,20.6L25.12,20.6C25.45,20.22 25.45,19.65 25.12,19.26L15.18,7.82C14.93,7.54 14.78,7.19 14.73,6.82L14.45,4.34C14.37,3.63 14.06,2.98 13.56,2.48L11.6,0.5L8.37,3.7L5.14,6.9L7.1,8.88C7.6,9.38 8.25,9.7 8.95,9.79L11.43,10.09C11.8,10.14 12.15,10.29 12.43,10.54L23.78,20.59C24.16,20.93 24.73,20.94 25.12,20.6Z"/>
    <path class="st0" d="M7.1,8.88L13.56,2.48"/>
    <path class="st0" d="M12.02,10.27L14.91,7.41"/>
    <path class="st0" d="M6.92,5.13L8.89,7.11"/>
    <path class="st0" d="M9.4,2.68L10.38,3.67"/>
</svg>