<svg xmlns="http://www.w3.org/2000/svg" width="21.92" height="26.02" viewBox="0 0 21.92 26.02">
    <style type="text/css">
        .st0{stroke:#d859a2;fill:none;stroke-width:1;stroke-linecap:round;stroke-linejoin:round;}
    </style>
    <path class="st0" d="M8.3,24.21C8.3,24.21 9.03,23.02 8.71,19.46"/>
    <path class="st0" d="M12.8,21.09L11.56,21.09C11.56,21.09 10.7,21.12 9.7,20.32C8.4,19.28 6.56,17.53 6.04,15.26C5.53,12.98 5.67,11.22 5.67,11.22"/>
    <path class="st0" d="M2.43,23.39C2.43,23.39 5.15,23.42 4.87,20.63C4.6,17.84 2.01,17.53 2.6,14.53C3.19,11.53 6.42,10.95 8.97,9.91C11.52,8.88 14.31,7.33 14.18,4.26"/>
    <path class="st0" d="M14.18,25.52C14.18,25.52 12.59,24.42 12.52,22.52C12.45,20.63 13.97,18.7 15.18,17.49C16.38,16.29 18.24,13.36 18.07,10.29C17.9,7.23 14.63,5.4 14.18,5.23"/>
    <path class="st0" d="M20.14,23.39C20.14,23.39 17.66,23.59 17.62,21.09C17.59,18.6 21.58,14.53 21.41,10.05C21.24,5.57 19.22,0.75 14.18,1.54"/>
    <path class="st0" d="M0.77,14.81C0.77,14.7 -0.59,10.4 2.77,8.3C6.15,6.19 10.52,6.02 12.52,4.26C14.52,2.51 14.45,1.54 13.45,0.99C12.45,0.44 5.8,-0.96 3.39,6.06"/>
</svg>