<svg xmlns="http://www.w3.org/2000/svg" width="26.08" height="26.08" viewBox="0 0 26.08 26.08">
    <style type="text/css">
        .st0{stroke:#6597f3;fill:none;stroke-width:1;stroke-linecap:round;stroke-linejoin:round;}
    </style>
    <path class="st0" d="M11.92,14.16C8.49,10.73 11.85,7.37 11.85,7.37C11.85,7.37 17.3,1.92 18.41,0.81C19.52,-0.29 22.17,1.82 23.21,2.86C24.26,3.91 26.38,6.55 25.27,7.66C24.16,8.77 18.71,14.22 18.71,14.22C18.71,14.22 15.35,17.58 11.92,14.16Z"/>
    <path class="st0" d="M10.94,25.58L21.58,14.94C21.58,14.94 24.39,12.07 23.44,9.49"/>
    <path class="st0" d="M0.5,15.14L11.14,4.5C11.14,4.5 14.01,1.69 16.59,2.64"/>
    <path class="st0" d="M10.48,9.94C10.48,9.94 12.67,9.95 14.4,11.68C16.13,13.41 16.14,15.6 16.14,15.6"/>
    <path class="st0" d="M23.38,6.49L21.71,8.15"/>
    <path class="st0" d="M20.24,9.62L19.59,10.27"/>
</svg>