<svg xmlns="http://www.w3.org/2000/svg" width="25.66" height="14.73" viewBox="0 0 25.66 14.73">
    <style type="text/css">
        .st0{stroke:#c4b830;fill:none;stroke-width:1;stroke-linecap:round;stroke-linejoin:round;}
    </style>
    <path class="st0" d="M1.43,10.4C1.43,10.4 5.06,5.42 10.67,5.42C16.27,5.42 19.07,9.75 21.5,9.75C23.33,9.75 24.88,7.91 25.16,6.18"/>
    <path class="st0" d="M15.37,0.5C15.37,0.5 16.05,4.33 12.62,5.59"/>
    <path class="st0" d="M19.23,2.15C19.23,2.15 19.42,6.05 15.87,6.76"/>
    <path class="st0" d="M22.52,4.17C22.52,4.17 22.23,8.07 18.62,8.33"/>
    <path class="st0" d="M19.78,10.4C19.78,10.4 16.46,14.23 10.6,14.23C4.74,14.23 1.43,10.4 1.43,10.4"/>
    <path class="st0" d="M14.8,6.24C15.23,7.04 15.47,7.97 15.47,8.96C15.47,11.87 13.39,14.23 10.82,14.23C8.26,14.23 6.18,11.87 6.18,8.96C6.18,7.94 6.44,6.99 6.88,6.18"/>
    <path class="st0" d="M0.5,6.18C0.5,6.18 3.58,2.19 10.11,1.95"/>
</svg>