<svg xmlns="http://www.w3.org/2000/svg" width="26.43" height="24.5" viewBox="0 0 26.43 24.5">
    <style type="text/css">
        .st0{stroke:#fcb328;fill:none;stroke-width:1;stroke-linecap:round;stroke-linejoin:round;}
    </style>
    <path class="st0" d="M6.93,24C6.12,22.24 3.23,15.97 6.93,10.42C10.63,4.86 6.93,0.5 6.93,0.5"/>
    <path class="st0" d="M19.5,24C20.31,22.24 23.2,15.97 19.5,10.42C15.79,4.86 19.5,0.5 19.5,0.5"/>
    <path class="st0" d="M19.72,11.03C19.72,11.03 17.49,13.03 13.21,13.03C8.94,13.03 6.71,11.03 6.71,11.03"/>
    <path class="st0" d="M21.24,14.98C16.7,15.74 13.21,18.37 13.21,18.37C13.21,18.37 9.73,15.74 5.19,14.98"/>
    <path class="st0" d="M13.21,18.37L13.21,24"/>
    <path class="st0" d="M13.21,9.21L13.21,9.59"/>
    <path class="st0" d="M3.23,8.99L5.14,5.98L3.23,2.96"/>
    <path class="st0" d="M0.5,5.98L5.14,5.98"/>
    <path class="st0" d="M23.2,8.99L21.29,5.98L23.2,2.96"/>
    <path class="st0" d="M25.93,5.98L21.29,5.98"/>
</svg>