<svg xmlns="http://www.w3.org/2000/svg" width="26.43" height="16.14" viewBox="0 0 26.43 16.14">
    <style type="text/css">
        .st0{stroke:#60bdbc;fill:none;stroke-width:1;stroke-linecap:round;stroke-linejoin:round;}
    </style>
    <path class="st0" d="M13.26,4.73L25.93,4.73C25.93,4.73 24.44,2.69 21.29,1.9C18.14,1.1 16.83,-0.04 14.81,0.79C12.79,1.64 13.26,1.49 13.26,1.49L13.16,1.49C13.16,1.49 13.64,1.64 11.62,0.79C9.6,-0.04 8.29,1.1 5.13,1.9C1.98,2.69 0.49,4.73 0.49,4.73L13.16,4.73L13.26,4.73Z"/>
    <path class="st0" d="M13.21,15.61L15.94,15.61C15.94,15.61 18.61,16.03 21.71,13.24C24.8,10.44 25.46,7.88 25.93,4.73C23.61,10.92 16.12,11.09 16.12,11.09L13.21,11.09L10.31,11.09C10.31,11.09 2.81,10.92 0.49,4.73C0.97,7.88 1.62,10.44 4.72,13.24C7.81,16.03 10.49,15.61 10.49,15.61L13.21,15.61Z"/>
</svg>