<svg xmlns="http://www.w3.org/2000/svg" width="26.43" height="24.99" viewBox="0 0 26.43 24.99">
    <style type="text/css">
        .st0{stroke:#b359d8;fill:none;stroke-width:1;stroke-linecap:round;stroke-linejoin:round;}
    </style>
    <path class="st0" d="M16.48,23.98C16.48,23.98 18.26,19.36 19.26,18.77C20.26,18.19 21.43,18.25 22.4,18.2C23.37,18.16 24.79,18.33 24.92,17.34C25.05,16.35 24.51,16.05 24.62,15.68C24.72,15.32 25.24,15.27 25.24,15.27C25.24,15.27 25.28,14.5 24.72,14.37C25.16,14.05 25.24,13.7 25.24,13.7C25.24,13.7 24.59,13.1 24.83,12.69C25.33,12.39 25.84,12.15 25.93,11.63C25.26,10.84 23.71,9.46 23.45,8.55C23.69,7.37 23.43,5.86 22.7,4.59C22.79,3.47 22.27,0.5 15.85,0.5C9.43,0.5 8.72,3.14 8.72,3.14C8.72,3.14 7.9,2.65 6.95,3.34C5.72,2.46 0.94,2.64 0.55,7.45C0.17,12.26 1.82,14.58 2.9,16.82C3.98,19.06 6.48,23.37 3.57,24.49"/>
    <path class="st0" d="M9.3,21.37C9.43,21.28 12.87,18.61 12.1,16.16C9.23,14.58 6.56,11.25 7.66,5.92"/>
</svg>