<svg xmlns="http://www.w3.org/2000/svg" width="24.47" height="25.24" viewBox="0 0 24.47 25.24">
    <style type="text/css">
        .st0{stroke:#f36f65;fill:none;stroke-width:1;stroke-linecap:round;stroke-linejoin:round;}
    </style>
    <path class="st0" d="M23.97,15.89L22.21,15.89C21.56,15.89 21.03,16.43 21.03,17.08L21.03,17.21C21.03,17.49 21.13,17.76 21.31,17.97C21.89,18.69 22.24,19.6 22.24,20.59C22.24,22.88 20.39,24.73 18.1,24.73C15.81,24.73 13.96,22.88 13.96,20.59C13.96,19.6 14.31,18.69 14.89,17.97C15.07,17.76 15.17,17.49 15.17,17.21L15.17,17.08C15.17,16.43 14.64,15.89 13.98,15.89L12.23,15.89L10.48,15.89C9.82,15.89 9.29,16.43 9.29,17.08L9.29,17.21C9.29,17.49 9.4,17.76 9.57,17.97C10.16,18.69 10.51,19.6 10.51,20.59C10.51,22.88 8.65,24.73 6.36,24.73C4.07,24.73 2.22,22.88 2.22,20.59C2.22,19.6 2.57,18.69 3.15,17.97C3.33,17.76 3.43,17.49 3.43,17.21L3.44,17.08C3.44,16.43 2.91,15.89 2.25,15.89L0.49,15.89"/>
    <path class="st0" d="M7.47,19.56C7.47,19.56 7.75,19.79 7.75,20.44C7.75,21.08 7.05,21.71 6.36,21.71C5.68,21.71 4.92,21.23 4.92,20.27C4.92,19.32 6.36,18.56 6.34,16.16C6.31,13.76 6.25,11.43 8.23,10.08"/>
    <path class="st0" d="M19.3,9.98C19.3,9.98 19.59,10.21 19.59,10.86C19.59,11.5 18.88,12.13 18.2,12.13C17.52,12.13 16.75,11.65 16.75,10.69C16.75,9.73 18.2,8.97 18.17,6.58C18.14,4.18 18.09,1.84 20.06,0.49"/>
</svg>