<svg xmlns="http://www.w3.org/2000/svg" width="16.75" height="22.48" viewBox="0 0 16.75 22.48">
    <style type="text/css">
        .st0{stroke:#000000;fill:none;stroke-width:1.5;}
    </style>
    <path class="st0" d="M8.37,11.16C6.84,11.16 5.59,9.91 5.59,8.37C5.59,6.84 6.84,5.59 8.37,5.59C9.91,5.59 11.16,6.84 11.16,8.37C11.16,9.91 9.91,11.16 8.37,11.16ZM8.37,0.74C4.17,0.74 0.74,4.17 0.74,8.37C0.74,8.7 0.77,9.02 0.81,9.31C1.42,15.1 7.44,21.19 7.7,21.44C7.88,21.62 8.12,21.72 8.37,21.72C8.63,21.72 8.87,21.62 9.05,21.44C9.31,21.19 15.33,15.1 15.94,9.33C15.98,9.02 16,8.7 16,8.37C16,4.17 12.58,0.74 8.37,0.74Z"/>
</svg>