<svg xmlns="http://www.w3.org/2000/svg" width="13.34" height="17.96" viewBox="0 0 13.34 17.96">
    <style type="text/css">
        .st0{stroke:#7d8c92;fill:none;stroke-width:1;}
    </style>
    <path class="st0"
          d="M6.67,8.92C5.43,8.92 4.42,7.91 4.42,6.67C4.42,5.43 5.43,4.42 6.67,4.42C7.91,4.42 8.92,5.43 8.92,6.67C8.92,7.91 7.91,8.92 6.67,8.92ZM6.67,0.5C3.26,0.5 0.49,3.26 0.49,6.67C0.49,6.93 0.52,7.19 0.55,7.42C1.04,12.1 5.91,17.03 6.12,17.24C6.26,17.38 6.46,17.46 6.67,17.46C6.87,17.46 7.07,17.38 7.21,17.24C7.42,17.03 12.29,12.1 12.78,7.44C12.81,7.19 12.84,6.93 12.84,6.67C12.84,3.26 10.07,0.5 6.67,0.5Z"/>
</svg>