<svg xmlns="http://www.w3.org/2000/svg" width="185.94" height="52.27" viewBox="0 0 185.94 52.27">
    <style type="text/css">
        .st2{fill:#e46aac;}
        .st1{fill:#ff9fc6;}
        .st4{fill:#000000;}
        .st3{fill:#d859a2;}
        .st5{fill:#7d8c92;}
        .st0{fill:#ff7bac;}
    </style>
    <path class="st0" d="M34.87,31.51L34.44,27.78L31.24,27.9C30.78,28.63 29.9,28.86 29.9,28.86C29.9,28.86 30.22,29.97 30.01,30.76C29.94,31.01 29.68,31.17 29.42,31.13C28.98,31.06 28.65,31.04 28.45,31.25C28.23,31.46 27.72,32.55 27.35,33.63C27.17,34.15 26.67,34.49 26.13,34.44C26.07,34.43 26.01,34.42 25.95,34.41L23.81,40.84L29.45,40.89C31.4,38.07 33.34,34.87 34.87,31.5ZM26.07,18.67L29.93,7.48L25.1,1.01C23.18,0.35 21.14,0 19,0C18.82,0 18.64,0 18.46,0.01L11.17,7.15L6.19,18.34L7.33,24.87L16.36,23.13C19.09,21.43 22.11,20.41 24.82,19.22C25.25,19.03 25.67,18.85 26.07,18.67"/>
    <path class="st1" d="M3.18,20.47L10.68,18.87C15.31,12.51 17.56,6 18.46,0.01C10,0.25 2.91,6.04 0.71,13.86Z"/>
    <path class="st2" d="M25.95,34.41C24.94,34.26 23.56,33.75 22.59,33.11C21.61,32.54 20.31,34.15 19.59,35.24C18.86,36.33 16.69,40.56 16.99,46.59C17.13,49.19 18.61,51.75 19,52.26C19.63,52.26 20.24,52.01 20.68,51.57C21.02,51.23 25.25,46.95 29.45,40.89C28.37,38.56 27.2,36.4 25.95,34.41M3.29,20.1L1.84,27.88C1.84,27.88 1.77,27.85 1.65,27.8C3.88,34.26 8,40.4 11.47,44.83C11.5,44.81 11.53,44.79 11.56,44.77C9.55,40.73 7.61,35.18 10.31,29.69C11.83,26.6 13.98,24.61 16.36,23.13C14.5,21.51 12.6,20.1 10.69,18.87Z"/>
    <path class="st3" d="M0.71,13.86C0.25,15.5 0,17.22 0,19C0,19.81 0.06,20.6 0.15,21.34C0.4,23.64 0.99,25.96 1.81,28.24C5.45,25.21 8.37,22.06 10.69,18.87C7.3,16.68 3.9,15.06 0.71,13.86"/>
    <path class="st2" d="M38.01,19C38.01,15.85 37.23,12.87 35.86,10.25C36.04,9.75 36.13,9.24 36.07,8.75C35.81,6.78 34.57,5.9 32.75,5.85C32.74,5.85 32.72,5.85 32.71,5.85C30.62,3.68 28.02,2 25.1,1.01C24.25,5.91 23.96,12.32 26.07,18.67C30.41,16.72 33.11,15.22 34.2,12.9C34.2,12.9 34.31,15.03 33.27,17.31C32.28,19.49 31.42,21.49 33.96,23.93C34.15,24.12 34.13,24.44 33.92,24.61C32.68,25.66 31.04,26.17 31.04,26.17C31.04,26.17 30.99,27.26 31.35,27.72C31.32,27.79 31.28,27.84 31.24,27.9C32.3,29.15 33.5,30.35 34.87,31.51C36.37,28.22 37.49,24.78 37.85,21.38C37.94,20.6 38.01,19.81 38.01,19"/>
    <path class="st4" d="M54.16,22.24L58.09,22.24C59.15,22.24 59.98,21.97 60.58,21.43C61.18,20.89 61.48,20.15 61.48,19.22C61.48,18.29 61.18,17.55 60.58,17.01C59.98,16.47 59.15,16.2 58.09,16.2L54.16,16.2ZM51.13,24.89L51.13,6.09L62.99,6.09L62.99,8.79L54.16,8.79L54.16,13.61L58.2,13.61C60.08,13.61 61.61,14.13 62.77,15.18C63.94,16.22 64.53,17.57 64.53,19.22C64.53,20.89 63.94,22.26 62.77,23.31C61.61,24.37 60.08,24.89 58.2,24.89Z"/>
    <path class="st4" d="M70.29,22.3L73.12,22.3C73.93,22.3 74.56,22.1 75.01,21.71C75.46,21.32 75.68,20.8 75.68,20.13C75.68,19.47 75.45,18.94 74.98,18.54C74.52,18.14 73.89,17.94 73.09,17.94L70.29,17.94ZM67.27,24.89L67.27,10.9L70.29,10.9L70.29,15.35L73.23,15.35C74.88,15.35 76.2,15.78 77.19,16.66C78.22,17.51 78.73,18.66 78.73,20.1C78.73,21.57 78.23,22.73 77.22,23.6C76.21,24.46 74.88,24.89 73.23,24.89Z"/>
    <path class="st4" d="M97.91,17.91C97.91,16.62 97.5,15.53 96.68,14.65C95.87,13.76 94.87,13.32 93.69,13.32C92.47,13.32 91.47,13.76 90.67,14.63C89.87,15.51 89.47,16.6 89.47,17.91C89.47,19.2 89.87,20.28 90.67,21.14C91.47,22.01 92.47,22.44 93.66,22.44C94.86,22.44 95.87,22.01 96.68,21.13C97.5,20.26 97.91,19.18 97.91,17.91M100.93,17.88C100.97,19.88 100.26,21.61 98.82,23.07C97.38,24.53 95.67,25.24 93.69,25.21C91.87,25.21 90.29,24.6 88.96,23.4C87.63,22.19 86.85,20.68 86.62,18.85L84.46,18.85L84.46,24.89L81.44,24.89L81.44,10.9L84.46,10.9L84.46,16.26L86.74,16.26C87.08,14.6 87.9,13.25 89.2,12.18C90.5,11.12 92.01,10.59 93.72,10.59C95.68,10.55 97.38,11.26 98.82,12.72C100.26,14.19 100.97,15.91 100.93,17.88"/>
    <path class="st4" d="M106.63,24.89L106.63,13.49L102.13,13.49L102.13,10.9L114.12,10.9L114.12,13.49L109.62,13.49L109.62,24.89Z"/>
    <path class="st4" d="M127.51,10.59L128.54,10.59L128.54,24.89L125.52,24.89L125.52,16.2L117.37,25.21L116.31,25.21L116.31,10.9L119.33,10.9L119.33,19.65Z"/>
    <path class="st4" d="M134.98,24.89L134.98,8.79L128.65,8.79L128.65,6.08L144.36,6.08L144.36,8.79L138,8.79L138,24.89Z"/>
    <path class="st4" d="M154.93,10.9L158.12,10.9L151.31,26.49C150.72,27.82 150.02,28.79 149.2,29.41C148.39,30.03 147.38,30.34 146.18,30.34C145.38,30.34 144.62,30.24 143.87,30.05L143.87,27.51C144.65,27.59 145.2,27.63 145.53,27.63C146.97,27.63 147.99,26.94 148.58,25.58L149.15,24.27L143.56,10.9L146.78,10.9L150.8,21.07Z"/>
    <path class="st4" d="M164.04,24.89L164.04,13.49L159.53,13.49L159.53,10.9L171.53,10.9L171.53,13.49L167.03,13.49L167.03,24.89Z"/>
    <path class="st4" d="M184.92,10.59L185.94,10.59L185.94,24.89L182.92,24.89L182.92,16.2L174.77,25.21L173.72,25.21L173.72,10.9L176.74,10.9L176.74,19.65Z"/>
    <path class="st5" d="M56.2,40.52L56.2,40.34L53.97,40.34C52.89,40.34 52.35,40.69 52.35,41.4C52.35,41.77 52.5,42.06 52.79,42.27C53.08,42.48 53.45,42.58 53.91,42.58C54.53,42.58 55.07,42.39 55.52,41.98C55.98,41.58 56.2,41.1 56.2,40.52M57.39,38.78L57.39,43.4L56.28,43.4L56.28,42.43C55.7,43.19 54.86,43.57 53.75,43.57C52.97,43.57 52.34,43.38 51.86,42.99C51.38,42.61 51.13,42.1 51.13,41.46C51.13,40.82 51.38,40.32 51.87,39.94C52.37,39.56 53.02,39.37 53.83,39.37L56.2,39.37L56.2,38.72C56.2,38.11 56.04,37.65 55.72,37.32C55.39,36.99 54.95,36.82 54.38,36.82C53.54,36.82 52.81,37.22 52.2,38.03L51.41,37.38C52.08,36.28 53.1,35.73 54.46,35.73C55.36,35.73 56.08,35.99 56.6,36.52C57.13,37.05 57.39,37.8 57.39,38.78"/>
    <path class="st5" d="M59.74,43.4L59.74,35.9L64.79,35.9L64.79,36.96L60.92,36.96L60.92,43.4Z"/>
    <path class="st5" d="M71.92,41.68C72.43,41.14 72.68,40.47 72.68,39.66C72.68,38.85 72.43,38.17 71.92,37.63C71.41,37.09 70.77,36.82 70.02,36.82C69.3,36.82 68.68,37.07 68.17,37.56C67.67,38.06 67.41,38.75 67.41,39.64C67.41,40.56 67.66,41.26 68.16,41.75C68.66,42.23 69.28,42.48 70.02,42.48C70.77,42.48 71.41,42.21 71.92,41.68M72.84,36.85C73.55,37.6 73.9,38.53 73.9,39.64C73.9,40.75 73.54,41.68 72.83,42.44C72.11,43.19 71.23,43.57 70.19,43.57C69,43.57 68.08,43.15 67.43,42.32L67.43,46.17L66.24,46.17L66.24,35.9L67.35,35.9L67.35,37.1C67.64,36.67 68.03,36.33 68.54,36.09C69.04,35.85 69.59,35.73 70.19,35.73C71.25,35.73 72.14,36.11 72.84,36.85"/>
    <path class="st5" d="M76.57,38.97L81.33,38.97C81.32,38.31 81.1,37.78 80.68,37.39C80.26,37 79.73,36.81 79.09,36.81C78.47,36.81 77.92,37.01 77.46,37.4C77,37.8 76.7,38.32 76.57,38.97M82.45,40.01L76.52,40.01C76.59,40.75 76.89,41.35 77.4,41.8C77.91,42.25 78.54,42.48 79.28,42.48C80.13,42.48 80.9,42.14 81.58,41.46L82.27,42.26C81.43,43.13 80.42,43.57 79.26,43.57C78.14,43.57 77.2,43.19 76.44,42.44C75.67,41.68 75.29,40.76 75.29,39.66C75.29,38.57 75.66,37.64 76.41,36.88C77.15,36.11 78.06,35.73 79.13,35.73C80.1,35.73 80.92,36.05 81.57,36.69C82.22,37.32 82.55,38.13 82.55,39.12C82.55,39.41 82.51,39.7 82.45,40.01"/>
    <path class="st5" d="M84.49,43.4L84.49,35.9L89.55,35.9L89.55,36.96L85.68,36.96L85.68,43.4Z"/>
    <path class="st5" d="M95.58,40.52L95.58,40.34L93.34,40.34C92.26,40.34 91.73,40.69 91.73,41.4C91.73,41.77 91.87,42.06 92.16,42.27C92.46,42.48 92.83,42.58 93.28,42.58C93.91,42.58 94.45,42.39 94.9,41.98C95.35,41.58 95.58,41.1 95.58,40.52M96.76,38.78L96.76,43.4L95.65,43.4L95.65,42.43C95.08,43.19 94.24,43.57 93.13,43.57C92.35,43.57 91.72,43.38 91.23,42.99C90.75,42.61 90.51,42.1 90.51,41.46C90.51,40.82 90.76,40.32 91.25,39.94C91.74,39.56 92.39,39.37 93.2,39.37L95.58,39.37L95.58,38.72C95.58,38.11 95.41,37.65 95.09,37.32C94.77,36.99 94.32,36.82 93.76,36.82C92.92,36.82 92.19,37.22 91.57,38.03L90.79,37.38C91.45,36.28 92.47,35.73 93.84,35.73C94.74,35.73 95.45,35.99 95.98,36.52C96.5,37.05 96.76,37.8 96.76,38.78"/>
    <path class="st5" d="M100.51,43.4L100.51,36.96L97.99,36.96L97.99,35.9L104.21,35.9L104.21,36.96L101.69,36.96L101.69,43.4Z"/>
    <path class="st5" d="M111.62,39.66C111.62,38.86 111.36,38.18 110.84,37.64C110.33,37.1 109.68,36.82 108.91,36.82C108.14,36.82 107.5,37.09 106.98,37.63C106.46,38.17 106.2,38.85 106.2,39.66C106.2,40.45 106.46,41.11 106.98,41.65C107.5,42.19 108.14,42.46 108.89,42.46C109.65,42.46 110.3,42.19 110.83,41.65C111.36,41.1 111.62,40.44 111.62,39.66M104.98,39.64C104.96,38.58 105.34,37.65 106.13,36.87C106.92,36.09 107.84,35.71 108.91,35.73C109.99,35.71 110.92,36.09 111.7,36.87C112.48,37.65 112.86,38.58 112.84,39.64C112.86,40.7 112.47,41.62 111.68,42.41C110.89,43.19 109.96,43.58 108.89,43.56C107.83,43.58 106.9,43.19 106.12,42.41C105.34,41.62 104.96,40.7 104.98,39.64"/>
    <path class="st5" d="M120.4,41.68C120.9,41.14 121.16,40.47 121.16,39.66C121.16,38.85 120.9,38.17 120.4,37.63C119.89,37.09 119.25,36.82 118.49,36.82C117.77,36.82 117.16,37.07 116.65,37.56C116.14,38.06 115.89,38.75 115.89,39.64C115.89,40.56 116.14,41.26 116.64,41.75C117.13,42.23 117.75,42.48 118.49,42.48C119.25,42.48 119.89,42.21 120.4,41.68M121.32,36.85C122.02,37.6 122.37,38.53 122.37,39.64C122.37,40.75 122.02,41.68 121.3,42.44C120.59,43.19 119.71,43.57 118.66,43.57C117.48,43.57 116.56,43.15 115.91,42.32L115.91,46.17L114.72,46.17L114.72,35.9L115.83,35.9L115.83,37.1C116.12,36.67 116.51,36.33 117.01,36.09C117.52,35.85 118.07,35.73 118.66,35.73C119.73,35.73 120.62,36.11 121.32,36.85"/>
    <path class="st5" d="M131.56,39.3L135.08,43.4L133.59,43.4L130.11,39.33L133.27,35.9L134.74,35.9ZM128.77 35.9L129.95 35.9L129.95 43.4L128.77 43.4Z"/>
    <path class="st5" d="M142.2,41.68C142.71,41.14 142.96,40.47 142.96,39.66C142.96,38.85 142.71,38.17 142.2,37.63C141.69,37.09 141.05,36.82 140.3,36.82C139.58,36.82 138.96,37.07 138.45,37.56C137.95,38.06 137.69,38.75 137.69,39.64C137.69,40.56 137.94,41.26 138.44,41.75C138.94,42.23 139.55,42.48 140.3,42.48C141.05,42.48 141.69,42.21 142.2,41.68M143.12,36.85C143.83,37.6 144.18,38.53 144.18,39.64C144.18,40.75 143.82,41.68 143.11,42.44C142.39,43.19 141.51,43.57 140.47,43.57C139.28,43.57 138.36,43.15 137.71,42.32L137.71,46.17L136.52,46.17L136.52,35.9L137.63,35.9L137.63,37.1C137.92,36.67 138.31,36.33 138.82,36.09C139.32,35.85 139.87,35.73 140.47,35.73C141.53,35.73 142.42,36.11 143.12,36.85"/>
    <path class="st5" d="M150.51,40.52L150.51,40.34L148.28,40.34C147.2,40.34 146.66,40.69 146.66,41.4C146.66,41.77 146.81,42.06 147.1,42.27C147.39,42.48 147.77,42.58 148.22,42.58C148.84,42.58 149.38,42.39 149.84,41.98C150.29,41.58 150.51,41.1 150.51,40.52M151.7,38.78L151.7,43.4L150.59,43.4L150.59,42.43C150.02,43.19 149.17,43.57 148.06,43.57C147.28,43.57 146.65,43.38 146.17,42.99C145.69,42.61 145.45,42.1 145.45,41.46C145.45,40.82 145.69,40.32 146.18,39.94C146.68,39.56 147.33,39.37 148.14,39.37L150.51,39.37L150.51,38.72C150.51,38.11 150.35,37.65 150.03,37.32C149.7,36.99 149.26,36.82 148.7,36.82C147.85,36.82 147.12,37.22 146.51,38.03L145.72,37.38C146.39,36.28 147.41,35.73 148.77,35.73C149.68,35.73 150.39,35.99 150.91,36.52C151.44,37.05 151.7,37.8 151.7,38.78"/>
    <path class="st5" d="M153.47,39.64C153.45,38.58 153.83,37.65 154.61,36.87C155.39,36.09 156.32,35.71 157.4,35.73C158.05,35.73 158.64,35.87 159.17,36.16C159.7,36.45 160.15,36.85 160.5,37.36L159.65,38.04C159.05,37.23 158.31,36.82 157.41,36.82C156.64,36.82 156,37.1 155.47,37.65C154.95,38.2 154.69,38.86 154.69,39.64C154.69,40.43 154.95,41.1 155.47,41.65C156,42.2 156.64,42.48 157.41,42.48C158.3,42.48 159.04,42.08 159.63,41.28L160.48,41.94C159.74,43.03 158.71,43.57 157.4,43.57C156.31,43.57 155.38,43.19 154.62,42.42C153.85,41.66 153.47,40.73 153.47,39.64"/>
    <path class="st5" d="M168.25,39.66C168.25,38.86 167.99,38.18 167.47,37.64C166.95,37.1 166.31,36.82 165.54,36.82C164.77,36.82 164.12,37.09 163.6,37.63C163.08,38.17 162.82,38.85 162.82,39.66C162.82,40.45 163.08,41.11 163.6,41.65C164.12,42.19 164.76,42.46 165.52,42.46C166.28,42.46 166.93,42.19 167.45,41.65C167.98,41.1 168.25,40.44 168.25,39.66M161.61,39.64C161.59,38.58 161.97,37.65 162.76,36.87C163.54,36.09 164.47,35.71 165.54,35.73C166.61,35.71 167.54,36.09 168.32,36.87C169.1,37.65 169.48,38.58 169.46,39.64C169.48,40.7 169.1,41.62 168.31,42.41C167.52,43.19 166.59,43.58 165.52,43.56C164.45,43.58 163.53,43.19 162.75,42.41C161.97,41.62 161.59,40.7 161.61,39.64"/>
    <path class="st5" d="M172.75,43.4L172.75,36.96L170.22,36.96L170.22,35.9L176.44,35.9L176.44,36.96L173.92,36.96L173.92,43.4Z"/>
    <path class="st5" d="M185.95 -16.36L184.76 -16.36L184.76 -8.86L185.95 -8.86ZM184.76,-8.86M179.07,-9.9L180.8,-9.9C181.33,-9.9 181.74,-10.03 182.02,-10.27C182.31,-10.51 182.45,-10.86 182.45,-11.31C182.45,-11.76 182.3,-12.11 182.02,-12.35C181.73,-12.6 181.32,-12.72 180.78,-12.72L179.07,-12.72ZM177.89,-8.86L177.89,-16.36L179.07,-16.36L179.07,-13.77L180.86,-13.77C181.7,-13.77 182.38,-13.55 182.89,-13.1C183.41,-12.65 183.66,-12.06 183.66,-11.32C183.66,-10.57 183.41,-9.97 182.9,-9.53C182.39,-9.08 181.71,-8.86 180.86,-8.86Z"/>
</svg>