<svg xmlns="http://www.w3.org/2000/svg" width="32.06" height="32.06" viewBox="0 0 32.06 32.06">
    <style type="text/css">
        .st0{fill:#e47e25;}
    </style>
    <path class="st0" d="M21.67,19.21C20.69,19.85 19.61,20.32 18.47,20.59L21.38,23.56C21.99,24.18 21.98,25.19 21.36,25.8C20.73,26.41 19.73,26.4 19.12,25.78L16.1,22.7L13.09,25.78C12.48,26.41 11.47,26.42 10.84,25.81C10.22,25.19 10.21,24.19 10.82,23.56L13.72,20.59C13.35,20.5 12.97,20.39 12.61,20.26C12.21,20.11 11.82,19.94 11.45,19.75C11.08,19.56 10.72,19.35 10.37,19.11C9.64,18.62 9.45,17.63 9.94,16.9C10.43,16.18 11.42,15.99 12.15,16.48C12.38,16.64 12.63,16.78 12.89,16.92C13.15,17.05 13.42,17.17 13.69,17.27C14.77,17.66 15.86,17.78 16.89,17.66C17.98,17.53 19.03,17.15 19.94,16.56C20.67,16.08 21.65,16.29 22.13,17.02C22.61,17.76 22.4,18.74 21.67,19.21M11.07,8.83C11.58,7.44 12.6,6.39 13.84,5.81C15.08,5.24 16.55,5.13 17.94,5.64C19.32,6.14 20.38,7.16 20.95,8.41C21.53,9.65 21.64,11.11 21.13,12.5C20.63,13.89 19.6,14.94 18.36,15.52C17.12,16.1 15.66,16.2 14.27,15.7C12.88,15.19 11.83,14.17 11.25,12.93C10.67,11.69 10.57,10.22 11.07,8.83M16.03,0C7.17,0 0,7.17 0,16.03C0,24.89 7.17,32.06 16.03,32.06C24.88,32.06 32.06,24.89 32.06,16.03C32.06,7.17 24.88,0 16.03,0M15.36,12.71C15.92,12.91 16.52,12.87 17.02,12.64C17.52,12.4 17.94,11.98 18.14,11.41C18.35,10.85 18.31,10.25 18.07,9.75C17.84,9.25 17.41,8.83 16.85,8.63C16.28,8.42 15.69,8.46 15.18,8.7C14.68,8.93 14.27,9.36 14.06,9.92C13.85,10.49 13.9,11.08 14.13,11.58C14.37,12.09 14.79,12.5 15.36,12.71"/>
</svg>