<svg xmlns="http://www.w3.org/2000/svg" width="16" height="17" viewBox="0 0 16 17">
    <style type="text/css">
        .st0{fill:#7c8b90;}
    </style>
    <path class="st0" d="M5,9.99L0.99,9.99L0,9.99L0,10.99L0,15.99L0,16.99L0.99,16.99L5,16.99L6,16.99L6,15.99L6,10.99L6,9.99ZM0.99 10.99L5 10.99L5 15.99L0.99 15.99Z"/>
    <path class="st0" d="M9.99,5L5.99,5L5,5L5,6L5,16L5,17L5.99,17L9.99,17L10.99,17L10.99,16L10.99,6L10.99,5ZM5.99 6L9.99 6L9.99 16L5.99 16Z"/>
    <path class="st0" d="M9.99,0L9.99,0.99L9.99,15.99L9.99,16.99L10.99,16.99L14.99,16.99L15.99,16.99L15.99,0ZM10.99 0.99L15 0.99L15 15.99L10.99 15.99Z"/>
</svg>