<svg xmlns="http://www.w3.org/2000/svg" width="17.59" height="16.82" viewBox="0 0 17.59 16.82">
    <style type="text/css">
        .st0{stroke:#7d8c92;fill:none;stroke-width:1;}
    </style>
    <path class="st0" d="M9.22,0.81L10.87,5.88C10.93,6.07 11.1,6.2 11.3,6.2L16.64,6.2C17.08,6.2 17.26,6.75 16.9,7.01L12.58,10.15C12.43,10.26 12.36,10.47 12.42,10.65L14.07,15.73C14.21,16.15 13.73,16.49 13.38,16.23L9.06,13.1C8.9,12.98 8.69,12.98 8.53,13.1L4.21,16.23C3.86,16.49 3.38,16.15 3.52,15.73L5.16,10.65C5.23,10.47 5.16,10.26 5,10.15L0.68,7.01C0.33,6.75 0.51,6.2 0.95,6.2L6.29,6.2C6.48,6.2 6.65,6.07 6.71,5.88L8.36,0.81C8.5,0.39 9.09,0.39 9.22,0.81Z"/>
</svg>