<svg xmlns="http://www.w3.org/2000/svg" width="22.37" height="22.37" viewBox="0 0 22.37 22.37">
    <style type="text/css">
        .st0{stroke:#000000;fill:none;stroke-width:1.5;stroke-linecap:round;stroke-linejoin:round;}
    </style>
    <path class="st0" d="M21.62,11.18C21.62,16.95 16.95,21.62 11.18,21.62C5.42,21.62 0.74,16.95 0.74,11.18C0.74,5.42 5.42,0.74 11.18,0.74C16.95,0.74 21.62,5.42 21.62,11.18Z"/>
    <path class="st0" d="M14.82,9.09C14.82,11.11 13.19,12.74 11.18,12.74C9.17,12.74 7.54,11.11 7.54,9.09C7.54,7.08 9.17,5.45 11.18,5.45C13.19,5.45 14.82,7.08 14.82,9.09Z"/>
    <path class="st0" d="M9.4,12.58C9.4,12.58 9.84,14.77 6.56,15.08C6.22,15.11 5.92,15.21 5.65,15.36L4.72,18.8"/>
    <path class="st0" d="M12.97,12.58C12.97,12.58 12.53,14.77 15.8,15.08C16.15,15.11 16.45,15.21 16.71,15.36L17.65,18.8"/>
</svg>