<svg xmlns="http://www.w3.org/2000/svg" width="32.06" height="32.06" viewBox="0 0 32.06 32.06">
    <style type="text/css">
        .st0{fill:#597ea3;}
    </style>
    <path class="st0" d="M25.89,22.17L22.99,22.21C22.99,22.21 22.37,22.33 21.55,21.77C20.47,21.02 19.44,19.09 18.65,19.34C17.84,19.6 17.86,21.34 17.86,21.34C17.86,21.34 17.87,21.71 17.69,21.91C17.49,22.12 17.09,22.17 17.09,22.17L15.8,22.17C15.8,22.17 12.94,22.34 10.41,19.72C7.67,16.85 5.24,11.18 5.24,11.18C5.24,11.18 5.1,10.8 5.25,10.62C5.42,10.42 5.89,10.41 5.89,10.41L8.99,10.39C8.99,10.39 9.28,10.44 9.49,10.59C9.66,10.72 9.76,10.95 9.76,10.95C9.76,10.95 10.26,12.22 10.92,13.37C12.22,15.61 12.82,16.09 13.26,15.85C13.9,15.5 13.71,12.69 13.71,12.69C13.71,12.69 13.72,11.67 13.39,11.21C13.13,10.86 12.64,10.76 12.42,10.73C12.25,10.71 12.54,10.3 12.91,10.12C13.47,9.85 14.45,9.83 15.61,9.84C16.52,9.85 16.78,9.91 17.14,9.99C18.21,10.25 17.84,11.25 17.84,13.64C17.84,14.41 17.71,15.48 18.26,15.84C18.5,15.99 19.08,15.86 20.53,13.4C21.22,12.23 21.73,10.85 21.73,10.85C21.73,10.85 21.85,10.61 22.02,10.5C22.2,10.39 22.44,10.43 22.44,10.43L25.71,10.41C25.71,10.41 26.69,10.29 26.85,10.73C27.01,11.2 26.48,12.28 25.15,14.06C22.96,16.98 22.71,16.7 24.53,18.39C26.27,20 26.63,20.78 26.69,20.88C27.4,22.07 25.89,22.17 25.89,22.17M16.03,0C7.17,0 0,7.17 0,16.03C0,24.89 7.17,32.06 16.03,32.06C24.89,32.06 32.06,24.89 32.06,16.03C32.06,7.17 24.89,0 16.03,0"/>
</svg>