<svg xmlns="http://www.w3.org/2000/svg" width="32.06" height="32.06" viewBox="0 0 32.06 32.06">
    <style type="text/css">
        .st0{fill:#d22728;}
    </style>
    <path class="st0" d="M25.32,16.73C25.32,18.24 25.14,19.74 25.14,19.74C25.14,19.74 24.95,21.02 24.4,21.58C23.69,22.32 22.9,22.33 22.53,22.37C19.93,22.56 16.03,22.57 16.03,22.57C16.03,22.57 11.2,22.52 9.71,22.38C9.3,22.3 8.37,22.32 7.66,21.58C7.1,21.02 6.92,19.74 6.92,19.74C6.92,19.74 6.74,18.24 6.74,16.73L6.74,15.32C6.74,13.82 6.92,12.31 6.92,12.31C6.92,12.31 7.1,11.03 7.66,10.47C8.37,9.73 9.16,9.73 9.52,9.68C12.12,9.49 16.02,9.49 16.02,9.49L16.03,9.49C16.03,9.49 19.93,9.49 22.53,9.68C22.9,9.73 23.69,9.73 24.4,10.47C24.95,11.03 25.14,12.31 25.14,12.31C25.14,12.31 25.32,13.82 25.32,15.32ZM16.03,0C7.17,0 0,7.17 0,16.03C0,24.89 7.17,32.06 16.03,32.06C24.88,32.06 32.06,24.89 32.06,16.03C32.06,7.17 24.88,0 16.03,0M14.11,18.44L19.13,15.84L14.11,13.22Z"/>
</svg>